<?xml version="1.0" encoding="UTF-8"?>
<svg id="Layer_2" data-name="Layer 2" xmlns="http://www.w3.org/2000/svg" viewBox="0 0 637.84 724.57">
  <defs>
    <style>
      .cls-1 {
        fill: #fff;
      }

      .cls-2 {
        fill: #006bed;
      }
    </style>
  </defs>
  <g id="Layer_1-2" data-name="Layer 1">
    <g>
      <path class="cls-2" d="m637.84,195.71v331.16c0,11.48-6.12,22.08-16.06,27.82l-286.8,165.58c-9.94,5.74-22.18,5.74-32.12,0L16.06,554.69c-9.94-5.74-16.06-16.34-16.06-27.82V195.71c0-11.48,6.12-22.08,16.06-27.82l143.82-83.03v90.52l-69.37,40.05c-7.49,4.33-12.11,12.33-12.11,20.98v249.76c0,8.65,4.62,16.65,12.11,20.98l37.66,21.74v-191.17c0-6.87,3.66-13.21,9.61-16.64l66.29-38.27,5-2.89,5-2.89,40.95-23.64,36.67-21.17-75.42-43.54c-3.37-1.94-5.44-5.54-5.44-9.43v-112.24c0-3.89,2.07-7.48,5.44-9.43L313.48,1.46c.92-.53,1.89-.91,2.89-1.15,1.67-.41,3.43-.41,5.1,0,1,.24,1.97.62,2.89,1.15l97.21,56.12c3.37,1.95,5.44,5.54,5.44,9.43v112.24c0,3.89-2.07,7.49-5.44,9.43l-75.42,43.54,36.67,21.17,48.25,27.85,5,2.89,5,2.89,58.99,34.06c5.95,3.43,9.61,9.77,9.61,16.64v191.17l37.66-21.74c7.49-4.33,12.11-12.33,12.11-20.98v-249.76c0-8.65-4.62-16.65-12.11-20.98l-69.37-40.05v-90.52l143.82,83.03c9.94,5.74,16.06,16.34,16.06,27.82Z"/>
      <g>
        <path class="cls-1" d="m382.82,458.41c-5.93,0-10.75,4.83-10.75,10.76,0,1.71.4,3.32,1.11,4.75-13.08,16.06-32.36,25.24-53.11,25.24-37.77,0-68.5-30.73-68.5-68.5s30.73-68.5,68.5-68.5c20.75,0,40.03,9.18,53.11,25.25-.71,1.44-1.11,3.05-1.11,4.76,0,5.92,4.82,10.74,10.75,10.74s10.75-4.82,10.75-10.74-4.82-10.76-10.75-10.76c-.52,0-1.04.04-1.54.11-14.99-18.68-37.23-29.36-61.21-29.36-39.67,0-72.56,29.57-77.77,67.83-16.64-5.43-28.23-21.04-28.23-38.95v-104.01l-5,2.89-5,2.89v98.23c0,23.12,15.53,43.16,37.51,49.18-.01.15-.01.29-.01.44,0,43.29,35.21,78.5,78.5,78.5,23.97,0,46.23-10.69,61.21-29.36.5.07,1.02.11,1.54.11,5.93,0,10.75-4.82,10.75-10.74s-4.82-10.76-10.75-10.76Zm0-72c3.17,0,5.75,2.58,5.75,5.76s-2.58,5.74-5.75,5.74-5.75-2.57-5.75-5.74,2.58-5.76,5.75-5.76Zm0,88.5c-3.17,0-5.75-2.57-5.75-5.74s2.58-5.76,5.75-5.76,5.75,2.58,5.75,5.76-2.58,5.74-5.75,5.74Z"/>
        <path class="cls-1" d="m436.07,284.13l-5-2.89v102.8c0,22.61-18.39,41-41,41h-33.19c-1.82-3.35-5.37-5.63-9.44-5.63-5.92,0-10.75,4.83-10.75,10.76s4.83,10.74,10.75,10.74c4.17,0,7.8-2.39,9.58-5.87h33.05c28.12,0,51-22.88,51-51v-97.02l-5-2.89Zm-88.63,151.78c-3.17,0-5.75-2.57-5.75-5.74s2.58-5.76,5.75-5.76,5.75,2.58,5.75,5.76-2.57,5.74-5.75,5.74Z"/>
      </g>
    </g>
  </g>
</svg>